<svg width="1447" height="129" viewBox="0 0 1447 129" fill="none" xmlns="http://www.w3.org/2000/svg">
<g clip-path="url(#clip0_20182_6)">
<g opacity="0.02">
<path d="M0 128.892V0.878662H20.6218L111.685 76.3942C114.747 78.8172 117.606 81.2401 119.852 83.4612C122.302 85.6822 124.344 87.9032 126.385 90.3262C125.977 83.0573 125.569 78.0095 125.364 74.9808C125.16 71.9522 125.16 69.7311 125.16 68.1158V0.878662H152.316V128.892H131.694L36.7518 49.7417C34.5058 47.7225 32.4641 45.9053 30.8307 44.29C29.1972 42.6747 27.5638 41.0594 26.1346 39.2422C26.543 43.2805 26.7471 46.9149 26.9513 50.3474C27.1555 53.7799 27.1555 56.8086 27.1555 59.4335V128.488H0V128.892Z" fill="white"/>
<path d="M212.344 128.892V0.878662H344.854V22.6853H242.562V51.357H302.181V73.1636H242.358V104.864H345.875V128.892H212.344Z" fill="white"/>
<path d="M626.006 128.892V0.878662H736.669C746.878 0.878662 754.433 2.89778 758.925 6.73413C763.621 10.5705 765.867 17.0317 765.867 25.714V54.3857C765.867 63.0679 763.621 69.3272 758.925 73.1636C754.229 76.9999 746.878 79.0191 736.669 79.0191H655.611V128.892H626.006ZM723.398 23.0891H655.611V57.0106H723.398C728.707 57.0106 732.178 56.2029 734.015 54.7895C735.853 53.3761 736.874 50.7512 736.874 46.9149V33.1848C736.874 29.5504 735.853 26.9255 734.015 25.3102C732.178 23.6949 728.707 23.0891 723.398 23.0891Z" fill="white"/>
<path d="M826.302 128.892V0.878662H856.52V128.892H826.302Z" fill="white"/>
<path d="M917.775 128.892L979.028 63.0679L916.55 0.878662H956.568L998.016 44.29L1037.22 0.878662H1071.93L1015.58 59.6354L1085.4 128.69H1044.57L997.2 79.0191L953.506 128.69H917.775V128.892Z" fill="white"/>
<path d="M463.688 23.6949H535.762V94.9703L561.08 120.008C564.143 115.364 565.776 108.297 565.776 98.4027V31.1657C565.776 19.4547 563.531 11.5801 559.243 7.33988C554.955 3.0997 546.38 0.878662 533.721 0.878662H440.616L463.688 23.6949Z" fill="#F9DA49"/>
<path d="M507.381 104.864H436.531V34.8004L411.214 9.76318C408.151 14.4071 406.518 21.4741 406.518 31.3679V98.8069C406.518 110.518 408.763 118.393 413.051 122.633C417.339 126.873 425.914 128.892 438.573 128.892H531.882L507.381 104.864Z" fill="#F9DA49"/>
<path d="M1319.59 128.892V0.878662H1349.81V104.864H1447V128.892H1319.59Z" fill="white"/>
<path d="M1148.9 22.6853H1259.36V0.878662H1126.85L1148.9 22.6853Z" fill="#F9DA49"/>
<path d="M1148.9 73.1633H1217.51V51.3567H1126.85L1148.9 73.1633Z" fill="#F9DA49"/>
<path d="M1148.9 128.892H1259.36V107.085H1126.85L1148.9 128.892Z" fill="#F9DA49"/>
</g>
</g>
<defs>
<clipPath id="clip0_20182_6">
<rect width="1447" height="129" fill="white"/>
</clipPath>
</defs>
</svg>
