<svg width="34" height="34" viewBox="0 0 34 34" fill="none" xmlns="http://www.w3.org/2000/svg">
<path d="M17.0002 8.66659C15.352 8.66659 13.7408 9.15533 12.3704 10.071C11 10.9867 9.9319 12.2882 9.30117 13.8109C8.67044 15.3336 8.50541 17.0092 8.82695 18.6257C9.1485 20.2422 9.94217 21.727 11.1076 22.8925C12.273 24.0579 13.7579 24.8516 15.3744 25.1731C16.9909 25.4947 18.6665 25.3296 20.1892 24.6989C21.7119 24.0682 23.0134 23.0001 23.9291 21.6297C24.8448 20.2593 25.3335 18.6481 25.3335 16.9999C25.3335 14.7898 24.4555 12.6702 22.8927 11.1074C21.3299 9.54456 19.2103 8.66659 17.0002 8.66659V8.66659ZM17.0002 21.9999C16.0113 21.9999 15.0446 21.7067 14.2223 21.1573C13.4001 20.6079 12.7592 19.827 12.3808 18.9133C12.0023 17.9997 11.9033 16.9944 12.0962 16.0245C12.2892 15.0546 12.7654 14.1636 13.4646 13.4644C14.1639 12.7651 15.0548 12.2889 16.0247 12.096C16.9946 11.9031 18 12.0021 18.9136 12.3805C19.8272 12.759 20.6081 13.3998 21.1575 14.2221C21.7069 15.0443 22.0002 16.011 22.0002 16.9999C22.0002 18.326 21.4734 19.5978 20.5357 20.5355C19.598 21.4731 18.3262 21.9999 17.0002 21.9999ZM25.3335 6.99992C25.0039 6.99992 24.6816 7.09767 24.4075 7.2808C24.1335 7.46394 23.9198 7.72424 23.7937 8.02878C23.6676 8.33332 23.6345 8.66843 23.6989 8.99174C23.7632 9.31504 23.9219 9.61201 24.155 9.8451C24.3881 10.0782 24.685 10.2369 25.0083 10.3012C25.3316 10.3655 25.6668 10.3325 25.9713 10.2064C26.2758 10.0802 26.5361 9.86662 26.7193 9.59254C26.9024 9.31845 27.0002 8.99622 27.0002 8.66659C27.0002 8.22456 26.8246 7.80064 26.512 7.48807C26.1994 7.17551 25.7755 6.99992 25.3335 6.99992ZM33.5668 10.7333C33.5392 9.30896 33.2687 7.89983 32.7668 6.56659C32.3015 5.35336 31.5862 4.25157 30.6673 3.33275C29.7485 2.41393 28.6467 1.69861 27.4335 1.23325C26.1003 0.731417 24.6911 0.460865 23.2668 0.433252C21.6502 0.333252 21.1168 0.333252 17.0002 0.333252C12.8835 0.333252 12.3502 0.333252 10.7335 0.433252C9.3092 0.460865 7.90007 0.731417 6.56683 1.23325C5.35361 1.69861 4.25182 2.41393 3.33299 3.33275C2.41417 4.25157 1.69886 5.35336 1.2335 6.56659C0.731662 7.89983 0.461109 9.30896 0.433496 10.7333C0.333496 12.3666 0.333496 12.8999 0.333496 16.9999C0.333496 21.0999 0.333496 21.6333 0.433496 23.2666C0.461109 24.6909 0.731662 26.1 1.2335 27.4333C1.69886 28.6465 2.41417 29.7483 3.33299 30.6671C4.25182 31.5859 5.35361 32.3012 6.56683 32.7666C7.90007 33.2684 9.3092 33.539 10.7335 33.5666C12.4002 33.5666 12.8835 33.6666 17.0002 33.6666C21.1168 33.6666 21.6502 33.6666 23.2668 33.5666C24.6911 33.539 26.1003 33.2684 27.4335 32.7666C28.6467 32.3012 29.7485 31.5859 30.6673 30.6671C31.5862 29.7483 32.3015 28.6465 32.7668 27.4333C33.2687 26.1 33.5392 24.6909 33.5668 23.2666C33.5668 21.5999 33.6668 21.0999 33.6668 16.9999C33.6668 12.8999 33.6668 12.3666 33.5668 10.7333ZM30.2335 23.1166C30.2043 24.1743 30.0074 25.2206 29.6502 26.2166C29.3548 27.0038 28.888 27.7155 28.2835 28.2999C27.7025 28.9047 26.9895 29.3667 26.2002 29.6499C25.2018 30.0218 24.1485 30.2245 23.0835 30.2499C21.5168 30.2499 21.0335 30.3333 16.9835 30.3333C12.9335 30.3333 12.4668 30.3333 10.9002 30.3333C9.83686 30.3058 8.78475 30.1089 7.7835 29.7499C6.99626 29.4546 6.28461 28.9877 5.70016 28.3833C5.09542 27.8023 4.63336 27.0892 4.35016 26.2999C3.97984 25.307 3.77708 24.2594 3.75016 23.1999C3.75016 21.5333 3.75016 21.1166 3.75016 17.0833C3.75016 13.0499 3.75016 12.5666 3.75016 10.9666C3.77889 9.90193 3.98157 8.84914 4.35016 7.84992C4.63776 7.06764 5.09938 6.36095 5.70016 5.78325C6.28112 5.17851 6.99418 4.71645 7.7835 4.43325C8.78181 4.06141 9.83515 3.85863 10.9002 3.83325C12.4668 3.66659 12.9502 3.66659 17.0002 3.66659C21.0502 3.66659 21.5335 3.66659 23.1002 3.66659C24.1704 3.6938 25.2289 3.89649 26.2335 4.26659C27.0158 4.55418 27.7225 5.01581 28.3002 5.61659C28.9049 6.19754 29.367 6.9106 29.6502 7.69992C30.0582 8.71419 30.2893 9.79089 30.3335 10.8833C30.3335 12.5499 30.4168 12.9666 30.4168 16.9999C30.4168 21.0333 30.3335 21.5166 30.3335 23.1166H30.2335Z" fill="white"/>
</svg>
