<svg width="453" height="40" viewBox="0 0 453 40" fill="none" xmlns="http://www.w3.org/2000/svg">
<path d="M0 40V0H6.4559L34.9642 23.5962C35.923 24.3533 36.8178 25.1104 37.521 25.8044C38.288 26.4984 38.9272 27.1924 39.5664 27.9495C39.4385 25.6782 39.3107 24.101 39.2468 23.1546C39.1829 22.2082 39.1829 21.5142 39.1829 21.0095V0H47.6842V40H41.2283L11.5056 15.2681C10.8025 14.6372 10.1633 14.0694 9.6519 13.5647C9.14054 13.0599 8.62918 12.5552 8.18174 11.9874C8.30958 13.2492 8.3735 14.3849 8.43742 15.4574C8.50134 16.53 8.50134 17.4763 8.50134 18.2965V39.8738H0V40Z" fill="white"/>
<path d="M66.4766 40V0H107.961V6.81388H75.9367V15.7729H94.6013V22.5867H75.8728V32.4921H108.28V40H66.4766Z" fill="white"/>
<path d="M195.978 40V0H230.623C233.819 0 236.184 0.630911 237.59 1.82965C239.06 3.02839 239.763 5.04732 239.763 7.76025V16.7192C239.763 19.4322 239.06 21.388 237.59 22.5867C236.12 23.7855 233.819 24.4164 230.623 24.4164H205.246V40H195.978ZM226.468 6.94006H205.246V17.5394H226.468C228.13 17.5394 229.216 17.2871 229.792 16.8454C230.367 16.4038 230.686 15.5836 230.686 14.3849V10.0946C230.686 8.95899 230.367 8.13881 229.792 7.63407C229.216 7.12934 228.13 6.94006 226.468 6.94006Z" fill="white"/>
<path d="M258.684 40V0H268.144V40H258.684Z" fill="white"/>
<path d="M287.32 40L306.496 19.4322L286.936 0H299.464L312.44 13.5647L324.713 0H335.579L317.937 18.3596L339.798 39.9369H327.014L312.184 24.4164L298.506 39.9369H287.32V40Z" fill="white"/>
<path d="M145.162 7.12934H167.726V29.4006L175.652 37.224C176.61 35.7729 177.122 33.5647 177.122 30.4732V9.46372C177.122 5.80442 176.419 3.34385 175.076 2.01893C173.734 0.694005 171.049 0 167.086 0H137.939L145.162 7.12934Z" fill="#26AAE1"/>
<path d="M158.841 32.4922H136.66V10.5995L128.734 2.77612C127.776 4.22723 127.264 6.43544 127.264 9.52692V30.5995C127.264 34.2588 127.967 36.7193 129.31 38.0443C130.652 39.3692 133.337 40.0001 137.3 40.0001H166.511L158.841 32.4922Z" fill="#26AAE1"/>
<path d="M413.114 40V0H422.574V32.4921H453V40H413.114Z" fill="white"/>
<path d="M359.677 6.81388H394.258V0H352.774L359.677 6.81388Z" fill="#26AAE1"/>
<path d="M359.677 22.5868H381.154V15.7729H352.774L359.677 22.5868Z" fill="#26AAE1"/>
<path d="M359.677 40.0002H394.258V33.1863H352.774L359.677 40.0002Z" fill="#26AAE1"/>
</svg>
