<svg width="40" height="30" viewBox="0 0 40 30" fill="none" xmlns="http://www.w3.org/2000/svg">
<path d="M36.4844 0.9375H3.51562C1.5732 0.9375 0 2.52047 0 4.45312V25.5469C0 27.491 1.58477 29.0625 3.51562 29.0625H36.4844C38.4105 29.0625 40 27.4977 40 25.5469V4.45312C40 2.52391 38.433 0.9375 36.4844 0.9375ZM35.992 3.28125C35.2738 3.9957 22.9127 16.2916 22.4859 16.7162C21.8219 17.3802 20.9391 17.7459 20 17.7459C19.0609 17.7459 18.1781 17.3802 17.5119 16.714C17.2248 16.4284 5.00023 4.26828 4.00797 3.28125H35.992ZM2.34375 25.0698V4.93164L12.4717 15.0062L2.34375 25.0698ZM4.00945 26.7188L14.1334 16.6591L15.8568 18.3734C16.9635 19.4802 18.4349 20.0896 20 20.0896C21.5651 20.0896 23.0365 19.4802 24.141 18.3756L25.8666 16.6591L35.9905 26.7188H4.00945ZM37.6562 25.0698L27.5283 15.0062L37.6562 4.93164V25.0698Z" fill="white"/>
</svg>
