<svg width="34" height="34" viewBox="0 0 34 34" fill="none" xmlns="http://www.w3.org/2000/svg">
<path d="M29.4002 18.6666C29.0335 18.6666 28.6502 18.5499 28.2835 18.4666C27.541 18.303 26.8113 18.0857 26.1002 17.8166C25.327 17.5353 24.4771 17.5499 23.714 17.8576C22.951 18.1653 22.3286 18.7443 21.9668 19.4833L21.6002 20.2333C19.9768 19.3302 18.4851 18.2087 17.1668 16.8999C15.8581 15.5816 14.7365 14.0899 13.8335 12.4666L14.5335 11.9999C15.2724 11.6381 15.8515 11.0158 16.1592 10.2528C16.4668 9.4897 16.4815 8.6398 16.2002 7.86661C15.9355 7.15398 15.7184 6.42461 15.5502 5.68328C15.4668 5.31661 15.4002 4.93328 15.3502 4.54994C15.1478 3.37598 14.5329 2.31285 13.6162 1.55201C12.6995 0.791171 11.5413 0.382624 10.3502 0.399943H5.35017C4.63189 0.393199 3.92058 0.541299 3.26468 0.83416C2.60878 1.12702 2.02368 1.55777 1.54922 2.09708C1.07475 2.63639 0.722059 3.2716 0.515148 3.95947C0.308237 4.64733 0.251967 5.37171 0.350168 6.08328C1.23806 13.0656 4.42688 19.5531 9.41292 24.521C14.399 29.4889 20.898 32.6541 27.8835 33.5166H28.5168C29.7459 33.5184 30.9325 33.0675 31.8502 32.2499C32.3774 31.7784 32.7986 31.2002 33.0859 30.5538C33.3732 29.9074 33.5201 29.2073 33.5168 28.4999V23.4999C33.4964 22.3423 33.0748 21.2275 32.3241 20.3461C31.5733 19.4646 30.5399 18.871 29.4002 18.6666V18.6666ZM30.2335 28.6666C30.2332 28.9033 30.1825 29.1371 30.0848 29.3526C29.9871 29.5682 29.8446 29.7604 29.6668 29.9166C29.4812 30.0783 29.2635 30.199 29.028 30.2708C28.7925 30.3426 28.5445 30.3639 28.3002 30.3333C22.0583 29.533 16.2606 26.6774 11.8214 22.2171C7.38216 17.7568 4.55419 11.9455 3.7835 5.69994C3.75698 5.45581 3.78022 5.20883 3.85184 4.97393C3.92345 4.73903 4.04195 4.52109 4.20017 4.33328C4.35635 4.1555 4.5486 4.01301 4.76413 3.91531C4.97966 3.8176 5.21353 3.76691 5.45017 3.76661H10.4502C10.8377 3.75799 11.2162 3.88474 11.5204 4.12506C11.8246 4.36538 12.0355 4.70423 12.1168 5.08328C12.1835 5.53883 12.2668 5.98883 12.3668 6.43328C12.5594 7.31185 12.8156 8.17524 13.1335 9.01661L10.8002 10.0999C10.6007 10.1915 10.4212 10.3215 10.2721 10.4826C10.123 10.6437 10.0072 10.8326 9.93129 11.0386C9.8554 11.2446 9.82095 11.4635 9.82991 11.6828C9.83887 11.9021 9.89107 12.1175 9.9835 12.3166C12.3822 17.4545 16.5122 21.5846 21.6502 23.9833C22.0559 24.15 22.5111 24.15 22.9168 23.9833C23.1247 23.9089 23.3157 23.794 23.4788 23.6453C23.6419 23.4965 23.7738 23.3168 23.8668 23.1166L24.9002 20.7833C25.7618 21.0914 26.6411 21.3474 27.5335 21.5499C27.9779 21.6499 28.4279 21.7333 28.8835 21.7999C29.2625 21.8813 29.6014 22.0922 29.8417 22.3964C30.082 22.7006 30.2088 23.079 30.2002 23.4666L30.2335 28.6666Z" fill="white"/>
</svg>
